<svg width="237" height="237" viewBox="0 0 237 237" fill="none" xmlns="http://www.w3.org/2000/svg">
<path fill-rule="evenodd" clip-rule="evenodd" d="M198.26 185.301L210.764 189.655C211.032 189.755 211.262 189.803 211.453 189.799C211.645 189.804 211.84 189.74 212.037 189.608C212.234 189.476 212.477 189.261 212.767 188.963L213.098 189.241L209.248 193.824L208.918 193.546C209.299 193.036 209.558 192.654 209.693 192.399C209.829 192.153 209.849 191.97 209.754 191.851C209.659 191.74 209.455 191.623 209.142 191.502L200.533 188.22L200.47 188.309L204.738 195.501C204.968 195.898 205.193 196.161 205.413 196.291C205.633 196.421 205.891 196.418 206.185 196.282C206.476 196.15 206.845 195.884 207.291 195.483L207.622 195.761L204.358 199.648L204.027 199.37C204.355 198.839 204.567 198.405 204.661 198.069C204.751 197.737 204.748 197.429 204.651 197.144C204.558 196.862 204.394 196.525 204.16 196.132L198.023 185.583L198.26 185.301ZM220.77 139.26L221.189 139.367L221.16 140.938L232.924 143.939L233.634 142.541L234.052 142.647L232.756 147.732L232.337 147.625L232.424 145.901L220.616 142.889L219.368 147.782C219.817 148.231 220.28 148.637 220.757 149C221.234 149.363 221.777 149.734 222.387 150.112L222.256 150.627L218.306 148.923L220.77 139.26ZM223.205 122.674L222.774 122.635L221.888 132.568L226.059 133.618L226.106 133.089C225.444 132.813 224.848 132.534 224.319 132.252C223.79 131.97 223.268 131.643 222.753 131.272L223.202 126.243L235.34 127.326L235.53 129.042L235.96 129.08L236.427 123.854L235.997 123.816L235.52 125.309L223.427 124.23L223.205 122.674ZM221.787 102.673L222.217 102.638C222.369 103.245 222.529 103.699 222.698 103.998C222.873 104.297 223.092 104.514 223.356 104.649C223.626 104.784 223.976 104.909 224.407 105.024L234.185 107.688L235.284 107.094L236.404 108.881L224.293 114.632C224.026 114.756 223.826 114.884 223.692 115.015C223.559 115.152 223.468 115.337 223.421 115.57C223.374 115.802 223.349 116.126 223.347 116.542L222.916 116.577L222.439 110.71L222.87 110.675C222.953 111.252 223.03 111.683 223.101 111.966C223.178 112.249 223.308 112.404 223.491 112.431C223.68 112.458 223.978 112.379 224.384 112.196L227.361 110.828L227.016 106.583L224.265 105.839C223.89 105.738 223.588 105.726 223.359 105.805C223.137 105.883 222.969 106.074 222.855 106.378C222.747 106.682 222.671 107.119 222.627 107.688L222.197 107.723L221.787 102.673ZM232.976 108.247L228.092 110.492L227.792 106.793L232.971 108.193L232.976 108.247ZM223.317 67.1536L213.588 76.1151L213.756 76.5324L223.514 75.8955L216.207 82.6086L216.386 83.051L228.443 82.2435C228.903 82.2132 229.281 82.226 229.575 82.282C229.875 82.3357 230.148 82.4842 230.395 82.7275C230.65 82.9741 230.933 83.3643 231.246 83.8982L231.646 83.7366L229.744 79.0208L229.343 79.1825C229.486 79.7592 229.546 80.2069 229.526 80.5256C229.506 80.8443 229.385 81.0742 229.164 81.2152C228.948 81.354 228.615 81.4336 228.164 81.4538L220.033 81.8497L226.639 76.1102C226.943 75.8386 227.178 75.6758 227.344 75.6218C227.516 75.5656 227.681 75.6543 227.84 75.8878C228.006 76.1246 228.229 76.5329 228.508 77.1125L228.909 76.9509L226.667 71.3922L226.266 71.5538C226.395 71.9545 226.471 72.2702 226.493 72.5007C226.517 72.7369 226.483 72.9414 226.391 73.1144C226.305 73.2851 226.155 73.4683 225.943 73.6639L224.436 75.0287L217.266 75.5628L217.236 75.4877L224.074 69.5363C224.366 69.2825 224.589 69.1281 224.741 69.0731C224.896 69.0236 225.05 69.1168 225.203 69.3525C225.362 69.586 225.589 70.0026 225.882 70.6023L226.283 70.4407L224.044 64.8903L223.643 65.0519C223.77 65.4471 223.846 65.7627 223.87 65.9988C223.894 66.235 223.859 66.4368 223.765 66.6042C223.678 66.7749 223.529 66.958 223.317 67.1536ZM202.176 56.0998L202.535 55.8607L203.682 56.9356L213.793 50.2151L213.231 48.7516L213.591 48.5124L219.151 56.8773L216.065 59.3067L215.801 58.9095C216.141 58.5106 216.482 58.0709 216.826 57.5905C217.178 57.1117 217.48 56.6079 217.734 56.0791L214.944 51.8816L210.477 54.8508L212.171 57.3992C212.562 57.3482 212.933 57.2672 213.285 57.1562C213.644 57.0468 213.987 56.9233 214.313 56.7857L214.573 57.1754L210.413 59.9404L210.154 59.5506C210.42 59.3014 210.671 59.0338 210.906 58.7479C211.141 58.462 211.355 58.1503 211.549 57.8127L209.855 55.2643L204.766 58.647L207.506 62.7695C208.181 62.7454 208.815 62.6698 209.408 62.5425C210.004 62.4202 210.598 62.2845 211.191 62.1356L211.54 62.6603L207.696 64.4047L202.176 56.0998ZM194.804 46.8164L194.482 47.104L197.945 50.9861L198.267 50.6985L197.487 49.2835L206.548 41.202L207.851 42.1497L208.174 41.8621L204.711 37.98L204.389 38.2676L205.2 39.6908L196.139 47.7723L194.804 46.8164ZM185.477 38.8889L189.858 26.3947C189.959 26.1264 190.007 25.8966 190.004 25.7053C190.009 25.5132 189.945 25.3185 189.814 25.121C189.682 24.9236 189.468 24.6799 189.17 24.3901L189.449 24.0599L194.024 27.9187L193.745 28.2489C193.236 27.8664 192.854 27.6071 192.6 27.4712C192.354 27.3345 192.171 27.3138 192.052 27.4091C191.941 27.5037 191.824 27.7074 191.701 28.0201L188.402 36.6223L188.49 36.6851L195.691 32.4332C196.089 32.2035 196.353 31.9789 196.483 31.7592C196.614 31.5394 196.611 31.2821 196.475 30.987C196.344 30.6959 196.078 30.3267 195.679 29.8795L195.957 29.5493L199.837 32.822L199.559 33.1522C199.028 32.8226 198.595 32.6103 198.259 32.5153C197.928 32.4242 197.619 32.427 197.334 32.5236C197.052 32.6157 196.715 32.7784 196.321 33.0119L185.759 39.1268L185.477 38.8889ZM165.192 25.111C165.288 25.4366 165.504 25.6857 165.841 25.8582C166.188 26.0362 166.522 26.0691 166.842 25.957C167.171 25.8423 167.414 25.6302 167.573 25.3205C167.743 24.9895 167.776 24.6625 167.672 24.3394C167.576 24.0137 167.352 23.7605 166.999 23.5798C166.668 23.41 166.342 23.3812 166.022 23.4933C165.71 23.6028 165.468 23.8231 165.299 24.1541C165.14 24.4637 165.104 24.7827 165.192 25.111ZM139.485 16.2803L139.592 15.8619L141.164 15.8945L144.189 4.13645L142.793 3.42399L142.9 3.00562L147.982 4.31305L147.874 4.73143L146.15 4.64103L143.114 16.4427L148.003 17.7008C148.453 17.2527 148.86 16.7906 149.224 16.3143C149.589 15.838 149.961 15.2956 150.34 14.6869L150.854 14.8193L149.142 18.7651L139.485 16.2803ZM122.903 13.8106L122.864 14.2408L132.795 15.1489L133.854 10.98L133.325 10.9316C133.047 11.5931 132.767 12.1881 132.484 12.7165C132.2 13.2449 131.873 13.7662 131.5 14.2804L126.472 13.8207L127.582 1.68529L129.298 1.49879L129.337 1.06857L124.112 0.590791L124.073 1.02099L125.565 1.50089L124.46 13.5915L122.903 13.8106ZM102.9 15.1859L102.866 14.7553C103.474 14.6049 103.927 14.4456 104.227 14.2775C104.526 14.1033 104.744 13.8845 104.879 13.621C105.015 13.3515 105.14 13.0015 105.257 12.571L107.942 2.79791L107.349 1.69821L109.139 0.581658L114.864 12.7051C114.988 12.9722 115.115 13.1728 115.246 13.3069C115.383 13.4405 115.568 13.5312 115.8 13.579C116.033 13.6268 116.357 13.6524 116.772 13.6556L116.806 14.0863L110.938 14.5503L110.904 14.1196C111.482 14.0378 111.912 13.9617 112.195 13.8911C112.478 13.8146 112.634 13.685 112.661 13.5022C112.688 13.3135 112.611 13.0157 112.428 12.6088L111.066 9.62888L106.821 9.96454L106.072 12.7142C105.969 13.0895 105.957 13.3914 106.035 13.6199C106.113 13.8425 106.304 14.0109 106.608 14.1253C106.911 14.2338 107.347 14.3106 107.917 14.3559L107.951 14.7865L102.9 15.1859ZM108.498 4.00884L110.732 8.89696L107.033 9.18946L108.444 4.0131L108.498 4.00884ZM67.3837 13.58L76.3244 23.328L76.7421 23.1605L76.126 13.4009L82.8235 20.7223L83.2662 20.5448L82.4845 8.48566C82.4552 8.02553 82.4688 7.64837 82.5254 7.35419C82.5798 7.05443 82.7288 6.78133 82.9727 6.53492C83.2198 6.28069 83.6107 5.99793 84.1452 5.68665L83.9844 5.28568L79.2646 7.17796L79.4254 7.57893C80.0024 7.43809 80.4503 7.37812 80.769 7.39904C81.0876 7.41996 81.3172 7.54122 81.4578 7.76282C81.5961 7.97886 81.6749 8.31249 81.6942 8.76372L82.0728 16.8953L76.3474 10.2771C76.0764 9.97205 75.9141 9.73654 75.8605 9.57057C75.8047 9.39903 75.8937 9.23405 76.1275 9.07566C76.3647 8.90946 76.7734 8.68742 77.3537 8.40953L77.1929 8.00855L71.6294 10.2391L71.7902 10.6401C72.1912 10.5116 72.507 10.4367 72.7376 10.4154C72.9738 10.3918 73.1783 10.4262 73.351 10.5185C73.5216 10.6053 73.7044 10.755 73.8996 10.9676L75.2612 12.4774L75.78 19.6483L75.7048 19.6785L69.768 12.8277C69.5149 12.5349 69.361 12.3121 69.3062 12.1595C69.2571 12.0047 69.3505 11.8509 69.5866 11.6981C69.8205 11.5397 70.2376 11.3143 70.8379 11.0219L70.6771 10.6209L65.1219 12.8481L65.2827 13.2491C65.6781 13.1228 65.994 13.048 66.2301 13.0244C66.4663 13.0008 66.668 13.0363 66.8352 13.1308C67.0058 13.2176 67.1886 13.3673 67.3837 13.58ZM56.2847 34.6974L56.0464 34.3371L57.1238 33.1927L50.4249 23.0671L48.9601 23.626L48.7218 23.2657L57.0985 17.7239L59.5214 20.8152L59.1235 21.0784C58.7254 20.7375 58.2864 20.3948 57.8067 20.0503C57.3287 19.6975 56.8255 19.3937 56.2972 19.1389L52.0939 21.9197L55.0535 26.3933L57.6055 24.7049C57.5553 24.3137 57.4751 23.9423 57.3649 23.5908C57.2563 23.231 57.1335 22.8877 56.9966 22.5611L57.3869 22.3029L60.1429 26.4687L59.7526 26.7269C59.5039 26.4598 59.2369 26.2084 58.9515 25.9728C58.6661 25.7371 58.3548 25.5222 58.0177 25.3279L55.4657 27.0163L58.8375 32.1129L62.9658 29.3817C62.9432 28.706 62.8689 28.0717 62.7428 27.4788C62.6218 26.8827 62.4874 26.2881 62.3398 25.6952L62.8652 25.3476L64.6014 29.1953L56.2847 34.6974ZM46.9858 42.0488L47.2727 42.3718L51.1622 38.9174L50.8753 38.5944L49.4586 39.3711L41.3964 30.2934L42.3469 28.9918L42.0601 28.6688L38.1706 32.1232L38.4574 32.4462L39.8824 31.6381L47.9446 40.7158L46.9858 42.0488ZM26.5534 46.9516L39.0383 51.3591L39.2768 51.0775L33.1845 40.5025C32.9519 40.1088 32.7898 39.771 32.6984 39.4891C32.6023 39.2033 32.6002 38.8948 32.692 38.5637C32.7877 38.2279 33.0009 37.7952 33.3317 37.2655L33.0021 36.9863L29.7211 40.8593L30.0507 41.1386C30.4987 40.7396 30.8685 40.4749 31.1599 40.3444C31.4552 40.2092 31.7126 40.2071 31.9321 40.3379C32.1515 40.4688 32.3756 40.7333 32.6044 41.1316L36.8409 48.3417L36.778 48.4299L28.1828 45.1118C27.8703 44.9887 27.6669 44.8714 27.5726 44.76C27.4775 44.6402 27.4986 44.4575 27.6358 44.212C27.7723 43.958 28.0324 43.5768 28.416 43.0682L28.0864 42.789L24.2178 47.3557L24.5474 47.6349C24.8379 47.3384 25.082 47.1245 25.2797 46.9932C25.4775 46.8619 25.6723 46.7989 25.8644 46.8043C26.0557 46.8013 26.2854 46.8504 26.5534 46.9516ZM211.995 164.987C211.669 165.083 211.421 165.3 211.249 165.637C211.072 165.984 211.039 166.318 211.152 166.638C211.267 166.966 211.48 167.21 211.79 167.368C212.122 167.537 212.449 167.569 212.771 167.464C213.097 167.368 213.35 167.143 213.53 166.79C213.699 166.459 213.727 166.133 213.614 165.813C213.504 165.501 213.283 165.26 212.952 165.091C212.642 164.933 212.323 164.898 211.995 164.987ZM190.353 194.645L190.064 194.323L186.19 197.794L186.478 198.116L187.891 197.333L195.992 206.376L195.047 207.682L195.335 208.004L199.21 204.533L198.922 204.211L197.5 205.025L189.399 195.982L190.353 194.645ZM181.085 202.036L181.325 202.395L180.252 203.544L186.994 213.641L188.457 213.076L188.697 213.435L180.344 219.013L177.908 215.932L178.304 215.667C178.704 216.006 179.144 216.347 179.626 216.689C180.105 217.04 180.609 217.342 181.139 217.594L185.33 214.796L182.352 210.335L179.807 212.034C179.859 212.425 179.94 212.796 180.052 213.147C180.162 213.506 180.287 213.849 180.425 214.175L180.036 214.435L177.262 210.281L177.651 210.021C177.901 210.287 178.169 210.537 178.455 210.772C178.742 211.006 179.054 211.22 179.392 211.413L181.937 209.713L178.543 204.631L174.427 207.38C174.452 208.056 174.529 208.69 174.658 209.282C174.781 209.878 174.918 210.472 175.068 211.064L174.544 211.414L172.792 207.574L181.085 202.036ZM170.076 223.201L161.094 213.491L160.677 213.66L161.335 223.417L154.606 216.124L154.164 216.304L154.997 228.359C155.029 228.819 155.017 229.197 154.961 229.491C154.908 229.791 154.76 230.065 154.518 230.312C154.271 230.567 153.882 230.852 153.349 231.165L153.511 231.566L158.223 229.653L158.06 229.253C157.484 229.396 157.036 229.458 156.718 229.439C156.399 229.419 156.169 229.299 156.027 229.078C155.888 228.862 155.808 228.529 155.786 228.078L155.373 219.948L161.127 226.542C161.399 226.846 161.562 227.08 161.617 227.246C161.673 227.417 161.585 227.583 161.352 227.742C161.115 227.909 160.708 228.133 160.128 228.414L160.291 228.814L165.845 226.559L165.682 226.159C165.282 226.289 164.966 226.366 164.736 226.388C164.5 226.413 164.295 226.379 164.122 226.287C163.951 226.201 163.768 226.052 163.572 225.841L162.204 224.337L161.654 217.168L161.729 217.138L167.695 223.963C167.95 224.255 168.104 224.477 168.16 224.629C168.21 224.784 168.117 224.938 167.881 225.092C167.648 225.251 167.232 225.478 166.633 225.773L166.796 226.174L172.341 223.923L172.179 223.522C171.784 223.65 171.468 223.727 171.232 223.751C170.996 223.776 170.794 223.741 170.627 223.647C170.456 223.561 170.272 223.412 170.076 223.201ZM134.554 221.746L134.59 222.177C133.983 222.33 133.529 222.491 133.23 222.661C132.932 222.836 132.716 223.056 132.581 223.32C132.447 223.59 132.323 223.94 132.208 224.371L129.565 234.156L130.162 235.253L128.377 236.377L122.6 224.278C122.476 224.012 122.347 223.812 122.216 223.678C122.078 223.545 121.893 223.455 121.661 223.408C121.428 223.362 121.104 223.337 120.688 223.336L120.652 222.905L126.518 222.416L126.554 222.847C125.977 222.931 125.547 223.009 125.264 223.081C124.981 223.159 124.827 223.289 124.8 223.472C124.773 223.661 124.852 223.958 125.037 224.364L126.411 227.338L130.655 226.985L131.393 224.232C131.494 223.856 131.505 223.554 131.426 223.326C131.347 223.104 131.155 222.936 130.851 222.823C130.547 222.716 130.11 222.641 129.541 222.598L129.505 222.167L134.554 221.746ZM129.004 232.947L126.749 228.069L130.447 227.76L129.057 232.943L129.004 232.947ZM114.556 223.207L114.594 222.777L104.659 221.911L103.618 226.084L104.147 226.131C104.422 225.468 104.699 224.872 104.98 224.342C105.262 223.813 105.587 223.29 105.957 222.774L110.987 223.212L109.929 235.352L108.214 235.546L108.177 235.976L113.404 236.432L113.441 236.002L111.947 235.528L113.001 223.433L114.556 223.207ZM97.9645 220.808L97.8586 221.227L96.2871 221.201L93.312 232.972L94.7116 233.679L94.6057 234.097L89.5187 232.812L89.6245 232.393L91.3488 232.476L94.3348 220.661L89.4397 219.424C88.9918 219.874 88.5868 220.338 88.2247 220.816C87.8626 221.294 87.493 221.838 87.1159 222.448L86.6011 222.318L88.2965 218.365L97.9645 220.808ZM72.2195 212.087C72.1222 211.762 71.905 211.514 71.5679 211.343C71.2201 211.167 70.8862 211.135 70.5662 211.248C70.2382 211.365 69.9954 211.578 69.8379 211.888C69.6696 212.22 69.6381 212.547 69.7435 212.87C69.8408 213.195 70.0661 213.447 70.4192 213.626C70.7509 213.795 71.0768 213.822 71.3968 213.709C71.7087 213.598 71.9488 213.377 72.1172 213.045C72.2747 212.735 72.3088 212.415 72.2195 212.087ZM51.8759 198.397L47.5485 210.909C47.449 211.178 47.4014 211.408 47.4056 211.599C47.4015 211.791 47.4657 211.986 47.5983 212.183C47.7308 212.38 47.9463 212.622 48.2446 212.911L47.9675 213.242L43.3762 209.403L43.6533 209.072C44.1643 209.452 44.5472 209.71 44.802 209.845C45.0484 209.98 45.2312 210 45.3504 209.904C45.4612 209.809 45.5772 209.605 45.6983 209.292L48.9613 200.676L48.8726 200.613L41.6899 204.896C41.2931 205.127 41.0299 205.353 40.9005 205.573C40.7711 205.794 40.7749 206.051 40.9119 206.345C41.0443 206.636 41.3114 207.004 41.7132 207.449L41.4361 207.781L37.5421 204.525L37.8192 204.193C38.351 204.521 38.7851 204.731 39.1214 204.825C39.4531 204.914 39.7616 204.91 40.0468 204.812C40.3281 204.719 40.6648 204.555 41.057 204.32L51.5928 198.16L51.8759 198.397ZM42.5147 190.509L42.8358 190.22L39.3566 186.353L39.0355 186.642L39.8212 188.053L30.7954 196.173L29.4877 195.231L29.1665 195.52L32.6458 199.387L32.9669 199.099L32.1497 197.679L41.1756 189.559L42.5147 190.509ZM35.1041 181.257L34.7453 181.498L33.594 180.428L23.5115 187.191L24.0799 188.652L23.7211 188.893L18.1257 180.552L21.2014 178.109L21.4671 178.506C21.1288 178.906 20.7889 179.347 20.4475 179.829C20.0978 180.309 19.7972 180.814 19.5458 181.344L22.3535 185.53L26.808 182.541L25.1034 180C24.7124 180.053 24.3416 180.136 23.9908 180.248C23.6316 180.359 23.2892 180.484 22.9634 180.623L22.7027 180.234L26.8508 177.452L27.1115 177.84C26.846 178.091 26.5963 178.359 26.3625 178.646C26.1287 178.933 25.9158 179.246 25.7237 179.584L27.4284 182.125L32.5033 178.721L29.7457 174.61C29.0701 174.637 28.4363 174.715 27.8443 174.845C27.2489 174.97 26.6552 175.108 26.0632 175.26L25.7122 174.737L29.5488 172.976L35.1041 181.257ZM13.916 170.294L23.6065 161.291L23.4364 160.874L13.6809 161.553L20.9593 154.808L20.779 154.367L8.72504 155.226C8.2651 155.258 7.88786 155.247 7.59333 155.192C7.29323 155.14 7.01918 154.992 6.7712 154.75C6.51539 154.505 6.23014 154.116 5.91544 153.583L5.51551 153.746L7.43799 158.454L7.83793 158.291C7.69339 157.715 7.63056 157.267 7.64942 156.948C7.66831 156.63 7.78808 156.399 8.00878 156.257C8.22394 156.117 8.55706 156.036 9.00815 156.014L17.1371 155.584L10.5558 161.351C10.2525 161.624 10.018 161.788 9.85237 161.843C9.68119 161.9 9.51565 161.812 9.35576 161.579C9.18805 161.343 8.96338 160.935 8.68179 160.357L8.28185 160.52L10.548 166.069L10.9479 165.906C10.8169 165.506 10.74 165.191 10.7172 164.96C10.6921 164.724 10.7251 164.519 10.8164 164.346C10.902 164.175 11.0506 163.991 11.262 163.795L12.7629 162.423L19.9304 161.859L19.9611 161.934L13.1485 167.914C12.8573 168.169 12.6355 168.325 12.4833 168.38C12.3288 168.43 12.1744 168.338 12.02 168.103C11.8601 167.87 11.6321 167.454 11.3358 166.856L10.9359 167.019L13.1986 172.56L13.5986 172.397C13.4698 172.002 13.3929 171.687 13.3678 171.451C13.3427 171.215 13.3769 171.013 13.4704 170.845C13.5561 170.674 13.7046 170.49 13.916 170.294ZM15.2942 134.768L14.8638 134.805C14.7095 134.198 14.5473 133.745 14.3772 133.447C14.2012 133.149 13.981 132.933 13.7166 132.799C13.4462 132.665 13.0954 132.542 12.6642 132.428L2.87411 129.806L1.77822 130.405L0.650237 128.623L12.7367 122.82C13.003 122.695 13.2028 122.566 13.336 122.434C13.4688 122.296 13.5583 122.111 13.6046 121.878C13.651 121.646 13.6744 121.321 13.675 120.906L14.1054 120.869L14.607 126.734L14.1766 126.77C14.0911 126.194 14.0122 125.764 13.9398 125.481C13.8615 125.199 13.7309 125.044 13.5479 125.018C13.359 124.992 13.0617 125.071 12.656 125.256L9.68491 126.637L10.0478 130.88L12.8022 131.612C13.1781 131.712 13.4801 131.723 13.7081 131.643C13.9302 131.564 14.0974 131.372 14.2099 131.067C14.3163 130.763 14.3904 130.326 14.432 129.757L14.8624 129.72L15.2942 134.768ZM4.08145 129.242L8.95516 126.977L9.27136 130.674L4.08605 129.295L4.08145 129.242ZM13.7908 114.774L14.2212 114.81L15.0656 104.874L10.89 103.842L10.8451 104.371C11.5083 104.644 12.105 104.92 12.6352 105.2C13.1654 105.48 13.6889 105.805 14.2055 106.174L13.7779 111.205L1.63569 110.173L1.43818 108.458L1.00774 108.421L0.56344 113.65L0.993891 113.686L1.46421 112.191L13.5616 113.219L13.7908 114.774ZM16.1543 98.1768L15.7352 98.0718L15.7578 96.5002L3.98059 93.5504L3.27709 94.9514L2.85804 94.8464L4.1329 89.7567L4.55196 89.8616L4.47259 91.586L16.2934 94.5468L17.5202 89.6491C17.0693 89.2022 16.6045 88.7981 16.1259 88.437C15.6473 88.0759 15.1025 87.7075 14.4915 87.3318L14.6205 86.8167L18.5772 88.5036L16.1543 98.1768ZM24.8198 72.4131C25.1449 72.3151 25.3926 72.0974 25.5629 71.7599C25.7387 71.4118 25.7695 71.0778 25.6553 70.7581C25.5385 70.4303 25.3248 70.1879 25.0141 70.0311C24.6821 69.8635 24.3548 69.8327 24.0324 69.9388C23.7074 70.0368 23.4556 70.2626 23.2771 70.6161C23.1095 70.9482 23.0828 71.2741 23.1969 71.5939C23.3084 71.9056 23.5302 72.1452 23.8623 72.3129C24.1729 72.4697 24.4921 72.5031 24.8198 72.4131Z" fill="white"/>
</svg>
