<svg width="236" height="237" viewBox="0 0 236 237" fill="none" xmlns="http://www.w3.org/2000/svg">
<path fill-rule="evenodd" clip-rule="evenodd" d="M197.821 185.3L210.325 189.655C210.593 189.755 210.823 189.803 211.014 189.799C211.206 189.803 211.401 189.74 211.598 189.608C211.795 189.475 212.038 189.26 212.328 188.963L212.658 189.241L208.809 193.824L208.479 193.546C208.86 193.036 209.118 192.653 209.254 192.399C209.39 192.153 209.41 191.97 209.315 191.85C209.22 191.739 209.016 191.623 208.703 191.501L200.094 188.22L200.031 188.308L204.298 195.5C204.529 195.898 204.754 196.161 204.974 196.291C205.194 196.421 205.452 196.418 205.746 196.281C206.037 196.15 206.406 195.883 206.852 195.482L207.183 195.76L203.918 199.647L203.588 199.37C203.916 198.838 204.128 198.405 204.222 198.069C204.312 197.737 204.309 197.429 204.212 197.143C204.119 196.862 203.955 196.525 203.721 196.132L197.584 185.583L197.821 185.3ZM220.331 139.26L220.75 139.367L220.721 140.938L232.485 143.938L233.194 142.54L233.613 142.647L232.316 147.731L231.898 147.625L231.985 145.901L220.177 142.889L218.929 147.782C219.378 148.231 219.841 148.637 220.318 149C220.795 149.363 221.338 149.734 221.948 150.112L221.816 150.626L217.867 148.923L220.331 139.26ZM222.766 122.673L222.335 122.635L221.448 132.567L225.62 133.618L225.667 133.089C225.005 132.813 224.409 132.534 223.88 132.251C223.351 131.969 222.829 131.643 222.314 131.271L222.763 126.242L234.901 127.326L235.091 129.042L235.521 129.08L235.988 123.854L235.558 123.816L235.081 125.309L222.988 124.229L222.766 122.673ZM221.348 102.673L221.778 102.638C221.93 103.245 222.09 103.699 222.259 103.998C222.434 104.297 222.653 104.514 222.917 104.649C223.186 104.784 223.537 104.909 223.968 105.024L233.746 107.688L234.845 107.093L235.965 108.88L223.854 114.632C223.587 114.756 223.387 114.884 223.253 115.015C223.12 115.152 223.029 115.337 222.982 115.57C222.935 115.802 222.91 116.126 222.907 116.542L222.477 116.577L222 110.71L222.431 110.675C222.514 111.252 222.591 111.682 222.662 111.966C222.739 112.248 222.869 112.403 223.052 112.431C223.241 112.457 223.539 112.379 223.945 112.195L226.922 110.827L226.577 106.583L223.826 105.839C223.451 105.737 223.149 105.726 222.92 105.804C222.698 105.883 222.53 106.074 222.416 106.378C222.308 106.682 222.232 107.118 222.188 107.688L221.758 107.723L221.348 102.673ZM232.537 108.247L227.653 110.491L227.353 106.793L232.532 108.193L232.537 108.247ZM222.878 67.1534L213.149 76.1148L213.317 76.5322L223.075 75.8952L215.768 82.6084L215.947 83.0507L228.004 82.2433C228.464 82.2129 228.841 82.2258 229.136 82.2817C229.436 82.3354 229.709 82.4839 229.956 82.7272C230.211 82.9738 230.494 83.3641 230.807 83.898L231.207 83.7363L229.305 79.0206L228.904 79.1822C229.046 79.7589 229.107 80.2067 229.087 80.5254C229.067 80.8441 228.946 81.074 228.725 81.215C228.509 81.3538 228.176 81.4333 227.724 81.4536L219.594 81.8495L226.2 76.11C226.504 75.8384 226.739 75.6756 226.905 75.6216C227.077 75.5654 227.242 75.654 227.401 75.8875C227.567 76.1244 227.79 76.5326 228.069 77.1123L228.47 76.9507L226.228 71.3919L225.827 71.5536C225.956 71.9543 226.032 72.2699 226.054 72.5005C226.078 72.7366 226.044 72.9412 225.952 73.1141C225.865 73.2849 225.716 73.468 225.504 73.6636L223.997 75.0285L216.827 75.5626L216.797 75.4874L223.635 69.5361C223.927 69.2823 224.15 69.1279 224.302 69.0728C224.457 69.0234 224.611 69.1165 224.764 69.3523C224.923 69.5858 225.149 70.0024 225.443 70.6021L225.844 70.4404L223.605 64.89L223.204 65.0517C223.331 65.4468 223.407 65.7625 223.431 65.9986C223.455 66.2347 223.42 66.4365 223.326 66.6039C223.239 66.7746 223.09 66.9578 222.878 67.1534ZM201.737 56.0995L202.096 55.8604L203.243 56.9354L213.354 50.2148L212.792 48.7513L213.152 48.5122L218.712 56.8771L215.626 59.3065L215.362 58.9092C215.702 58.5103 216.043 58.0707 216.387 57.5902C216.739 57.1114 217.041 56.6076 217.295 56.0788L214.505 51.8814L210.038 54.8506L211.732 57.399C212.123 57.348 212.494 57.2669 212.845 57.1559C213.205 57.0466 213.548 56.9231 213.874 56.7854L214.133 57.1752L209.973 59.9401L209.714 59.5504C209.981 59.3011 210.232 59.0336 210.467 58.7477C210.702 58.4618 210.916 58.15 211.11 57.8125L209.416 55.2641L204.326 58.6467L207.067 62.7692C207.742 62.7452 208.376 62.6695 208.969 62.5422C209.565 62.4199 210.159 62.2843 210.752 62.1353L211.1 62.66L207.256 64.4045L201.737 56.0995ZM194.365 46.8162L194.043 47.1037L197.506 50.9858L197.828 50.6983L197.048 49.2833L206.109 41.2017L207.412 42.1494L207.735 41.8619L204.272 37.9798L203.95 38.2673L204.761 39.6905L195.7 47.7721L194.365 46.8162ZM185.038 38.8886L189.419 26.3944C189.52 26.1261 189.568 25.8963 189.565 25.705C189.57 25.513 189.506 25.3183 189.375 25.1208C189.243 24.9234 189.029 24.6797 188.731 24.3898L189.01 24.0596L193.585 27.9184L193.306 28.2487C192.797 27.8661 192.415 27.6069 192.161 27.4709C191.915 27.3342 191.732 27.3136 191.613 27.4089C191.502 27.5035 191.385 27.7071 191.262 28.0198L187.963 36.6221L188.051 36.6848L195.252 32.4329C195.65 32.2033 195.914 31.9786 196.044 31.7589C196.174 31.5392 196.172 31.2818 196.036 30.9868C195.905 30.6956 195.639 30.3264 195.239 29.8792L195.518 29.549L199.398 32.8218L199.12 33.152C198.589 32.8223 198.156 32.61 197.82 32.5151C197.489 32.424 197.18 32.4267 196.895 32.5234C196.613 32.6154 196.275 32.7782 195.882 33.0117L185.32 39.1265L185.038 38.8886ZM164.753 25.1107C164.849 25.4364 165.065 25.6855 165.402 25.858C165.749 26.036 166.082 26.0689 166.403 25.9568C166.731 25.8421 166.975 25.6299 167.134 25.3203C167.304 24.9893 167.337 24.6622 167.233 24.3391C167.137 24.0135 166.912 23.7603 166.56 23.5796C166.229 23.4098 165.903 23.381 165.583 23.4931C165.27 23.6026 165.029 23.8228 164.86 24.1538C164.701 24.4635 164.665 24.7824 164.753 25.1107ZM139.046 16.28L139.153 15.8616L140.725 15.8942L143.75 4.13621L142.353 3.42375L142.461 3.00537L147.543 4.31281L147.435 4.73118L145.711 4.64079L142.675 16.4424L147.564 17.7005C148.014 17.2525 148.421 16.7903 148.785 16.314C149.15 15.8377 149.521 15.2953 149.901 14.6867L150.415 14.819L148.703 18.7648L139.046 16.28ZM122.464 13.8104L122.425 14.2406L132.355 15.1486L133.414 10.9798L132.886 10.9314C132.608 11.5929 132.328 12.1878 132.045 12.7162C131.761 13.2446 131.434 13.766 131.061 14.2802L126.033 13.8204L127.143 1.68504L128.859 1.49854L128.898 1.06833L123.673 0.590547L123.634 1.02075L125.126 1.50065L124.021 13.5912L122.464 13.8104ZM102.461 15.1857L102.426 14.755C103.034 14.6046 103.488 14.4454 103.788 14.2772C104.087 14.1031 104.305 13.8843 104.44 13.6208C104.575 13.3513 104.701 13.0013 104.818 12.5707L107.503 2.79767L106.91 1.69796L108.7 0.581413L114.425 12.7048C114.549 12.9719 114.676 13.1725 114.807 13.3066C114.944 13.4402 115.128 13.5309 115.361 13.5788C115.593 13.6266 115.917 13.6521 116.333 13.6554L116.367 14.086L110.499 14.55L110.465 14.1194C111.043 14.0376 111.473 13.9614 111.756 13.8909C112.039 13.8144 112.194 13.6847 112.222 13.502C112.249 13.3132 112.172 13.0154 111.989 12.6086L110.627 9.62863L106.382 9.96429L105.633 12.7139C105.53 13.0892 105.518 13.3911 105.596 13.6197C105.674 13.8422 105.864 14.0107 106.168 14.1251C106.472 14.2335 106.908 14.3103 107.478 14.3556L107.512 14.7863L102.461 15.1857ZM108.059 4.00859L110.293 8.89671L106.594 9.18922L108.005 4.01286L108.059 4.00859ZM66.9447 13.5797L75.8853 23.3277L76.303 23.1603L75.6869 13.4006L82.3844 20.7221L82.8272 20.5446L82.0454 8.48542C82.0161 8.02528 82.0297 7.64813 82.0863 7.35394C82.1407 7.05419 82.2898 6.78109 82.5336 6.53467C82.7807 6.28044 83.1716 5.99769 83.7061 5.6864L83.5454 5.28544L78.8256 7.17771L78.9863 7.57868C79.5633 7.43784 80.0112 7.37788 80.3299 7.3988C80.6485 7.41971 80.8782 7.54097 81.0187 7.76257C81.157 7.97862 81.2359 8.31225 81.2552 8.76348L81.6337 16.895L75.9083 10.2769C75.6373 9.97181 75.475 9.73629 75.4214 9.57032C75.3656 9.39878 75.4546 9.23381 75.6884 9.07541C75.9256 8.90922 76.3344 8.68717 76.9146 8.40928L76.7539 8.00831L71.1903 10.2388L71.3511 10.6398C71.7521 10.5114 72.0679 10.4365 72.2985 10.4151C72.5347 10.3915 72.7392 10.4259 72.912 10.5182C73.0825 10.605 73.2653 10.7547 73.4605 10.9674L74.8221 12.4771L75.3409 19.6481L75.2657 19.6782L69.3289 12.8274C69.0758 12.5346 68.9219 12.3119 68.8671 12.1593C68.818 12.0045 68.9115 11.8506 69.1475 11.6978C69.3814 11.5394 69.7985 11.314 70.3988 11.0216L70.238 10.6207L64.6829 12.8478L64.8436 13.2488C65.239 13.1226 65.5549 13.0477 65.791 13.0241C66.0272 13.0005 66.2289 13.036 66.3961 13.1306C66.5667 13.2174 66.7495 13.3671 66.9447 13.5797ZM55.8456 34.6972L55.6073 34.3369L56.6847 33.1925L49.9858 23.0668L48.5211 23.6258L48.2827 23.2655L56.6594 17.7236L59.0823 20.8149L58.6845 21.0781C58.2863 20.7373 57.8473 20.3946 57.3676 20.0501C56.8896 19.6972 56.3864 19.3934 55.8582 19.1386L51.6548 21.9195L54.6144 26.3931L57.1665 24.7047C57.1163 24.3134 57.036 23.9421 56.9258 23.5906C56.8172 23.2307 56.6944 22.8875 56.5575 22.5608L56.9478 22.3026L59.7038 26.4685L59.3135 26.7267C59.0648 26.4596 58.7978 26.2082 58.5124 25.9725C58.227 25.7369 57.9158 25.5219 57.5786 25.3277L55.0266 27.0161L58.3984 32.1127L62.5267 29.3815C62.5041 28.7058 62.4298 28.0715 62.3038 27.4786C62.1827 26.8824 62.0484 26.2879 61.9007 25.6949L62.4261 25.3473L64.1623 29.195L55.8456 34.6972ZM46.5467 42.0485L46.8336 42.3715L50.7231 38.9172L50.4362 38.5942L49.0195 39.3709L40.9573 30.2932L41.9079 28.9916L41.621 28.6686L37.7315 32.1229L38.0184 32.4459L39.4433 31.6379L47.5055 40.7156L46.5467 42.0485ZM26.1143 46.9514L38.5992 51.3588L38.8377 51.0773L32.7454 40.5022C32.5128 40.1086 32.3507 39.7707 32.2593 39.4888C32.1632 39.203 32.1611 38.8946 32.2529 38.5634C32.3486 38.2277 32.5618 37.795 32.8926 37.2653L32.563 36.986L29.282 40.8591L29.6116 41.1383C30.0596 40.7394 30.4294 40.4747 30.7208 40.3441C31.0162 40.209 31.2735 40.2068 31.493 40.3377C31.7124 40.4685 31.9365 40.7331 32.1653 41.1313L36.4018 48.3414L36.3389 48.4297L27.7437 45.1116C27.4313 44.9884 27.2279 44.8712 27.1335 44.7598C27.0384 44.6399 27.0595 44.4572 27.1967 44.2117C27.3332 43.9578 27.5933 43.5765 27.9769 43.068L27.6473 42.7888L23.7787 47.3554L24.1083 47.6346C24.3988 47.3381 24.6429 47.1242 24.8407 46.9929C25.0384 46.8616 25.2332 46.7987 25.4253 46.8041C25.6166 46.801 25.8463 46.8501 26.1143 46.9514ZM211.556 164.986C211.23 165.083 210.981 165.3 210.81 165.636C210.632 165.984 210.6 166.318 210.713 166.638C210.828 166.966 211.041 167.209 211.351 167.367C211.682 167.537 212.01 167.569 212.332 167.464C212.658 167.367 212.911 167.143 213.091 166.79C213.26 166.459 213.288 166.133 213.175 165.812C213.065 165.5 212.844 165.26 212.513 165.091C212.203 164.932 211.884 164.898 211.556 164.986ZM189.913 194.645L189.625 194.323L185.751 197.794L186.039 198.116L187.452 197.333L195.553 206.376L194.608 207.682L194.896 208.003L198.771 204.532L198.483 204.211L197.061 205.025L188.96 195.982L189.913 194.645ZM180.646 202.036L180.886 202.395L179.813 203.544L186.555 213.641L188.018 213.076L188.258 213.435L179.905 219.013L177.469 215.932L177.865 215.667C178.265 216.006 178.705 216.347 179.186 216.689C179.666 217.04 180.17 217.342 180.7 217.594L184.891 214.795L181.913 210.334L179.368 212.034C179.42 212.425 179.501 212.796 179.613 213.147C179.723 213.506 179.847 213.849 179.986 214.175L179.597 214.435L176.823 210.281L177.212 210.021C177.462 210.287 177.73 210.537 178.016 210.772C178.303 211.006 178.615 211.22 178.953 211.412L181.498 209.713L178.104 204.631L173.988 207.38C174.013 208.056 174.09 208.689 174.219 209.282C174.342 209.877 174.479 210.471 174.629 211.064L174.105 211.414L172.353 207.573L180.646 202.036ZM169.637 223.2L160.655 213.491L160.238 213.66L160.896 223.417L154.167 216.124L153.725 216.303L154.558 228.359C154.59 228.819 154.578 229.196 154.522 229.491C154.469 229.791 154.321 230.064 154.078 230.312C153.832 230.567 153.443 230.852 152.91 231.165L153.072 231.565L157.784 229.653L157.621 229.253C157.045 229.396 156.597 229.458 156.278 229.438C155.96 229.419 155.73 229.298 155.588 229.077C155.449 228.862 155.369 228.529 155.347 228.078L154.934 219.948L160.688 226.541C160.96 226.845 161.123 227.08 161.178 227.246C161.234 227.417 161.146 227.582 160.913 227.742C160.676 227.909 160.268 228.133 159.689 228.413L159.852 228.814L165.406 226.559L165.243 226.159C164.843 226.289 164.527 226.365 164.297 226.388C164.061 226.412 163.856 226.379 163.683 226.287C163.512 226.201 163.329 226.052 163.133 225.84L161.764 224.337L161.215 217.168L161.29 217.137L167.256 223.963C167.51 224.254 167.665 224.477 167.721 224.629C167.771 224.784 167.678 224.938 167.442 225.092C167.209 225.251 166.793 225.478 166.194 225.773L166.356 226.173L171.902 223.922L171.74 223.522C171.345 223.65 171.029 223.726 170.793 223.751C170.557 223.776 170.355 223.741 170.188 223.647C170.017 223.561 169.833 223.412 169.637 223.2ZM134.115 221.746L134.151 222.177C133.544 222.33 133.09 222.491 132.791 222.66C132.493 222.836 132.276 223.055 132.142 223.32C132.008 223.59 131.884 223.94 131.769 224.371L129.126 234.156L129.723 235.253L127.938 236.377L122.161 224.278C122.036 224.012 121.908 223.812 121.777 223.678C121.639 223.545 121.454 223.455 121.222 223.408C120.989 223.361 120.665 223.337 120.249 223.336L120.213 222.905L126.079 222.416L126.115 222.847C125.538 222.931 125.108 223.009 124.825 223.081C124.542 223.158 124.388 223.289 124.361 223.472C124.334 223.66 124.413 223.958 124.598 224.364L125.972 227.338L130.216 226.984L130.954 224.231C131.055 223.856 131.066 223.554 130.986 223.326C130.908 223.103 130.716 222.936 130.412 222.823C130.108 222.715 129.671 222.641 129.101 222.598L129.066 222.167L134.115 221.746ZM128.564 232.947L126.31 228.069L130.008 227.76L128.618 232.943L128.564 232.947ZM114.117 223.207L114.155 222.776L104.22 221.911L103.179 226.084L103.708 226.13C103.983 225.468 104.26 224.871 104.541 224.342C104.822 223.812 105.148 223.29 105.518 222.774L110.548 223.212L109.49 235.352L107.775 235.546L107.738 235.976L112.965 236.432L113.002 236.001L111.508 235.528L112.562 223.433L114.117 223.207ZM97.5254 220.808L97.4195 221.227L95.848 221.201L92.8729 232.972L94.2725 233.678L94.1666 234.097L89.0796 232.811L89.1855 232.393L90.9097 232.476L93.8957 220.661L89.0007 219.424C88.5527 219.874 88.1477 220.338 87.7856 220.816C87.4235 221.294 87.0539 221.838 86.6769 222.448L86.1621 222.318L87.8574 218.365L97.5254 220.808ZM71.7804 212.087C71.6831 211.762 71.4659 211.514 71.1288 211.343C70.781 211.166 70.4471 211.135 70.1272 211.248C69.7991 211.364 69.5563 211.578 69.3988 211.888C69.2305 212.22 69.199 212.547 69.3044 212.869C69.4017 213.195 69.627 213.447 69.9801 213.626C70.3118 213.794 70.6377 213.822 70.9577 213.708C71.2696 213.598 71.5098 213.376 71.6781 213.045C71.8356 212.734 71.8697 212.415 71.7804 212.087ZM51.4368 198.396L47.1095 210.909C47.0099 211.178 46.9623 211.408 46.9666 211.599C46.9624 211.791 47.0266 211.986 47.1592 212.183C47.2917 212.379 47.5072 212.622 47.8056 212.911L47.5284 213.242L42.9371 209.403L43.2142 209.072C43.7252 209.452 44.1081 209.71 44.3629 209.844C44.6093 209.98 44.7921 210 44.9114 209.904C45.0221 209.809 45.1381 209.605 45.2592 209.292L48.5222 200.675L48.4336 200.613L41.2508 204.896C40.854 205.127 40.5909 205.353 40.4614 205.573C40.332 205.793 40.3358 206.051 40.4728 206.345C40.6052 206.636 40.8723 207.004 41.2741 207.449L40.997 207.781L37.103 204.524L37.3801 204.193C37.9119 204.52 38.346 204.731 38.6823 204.824C39.0141 204.914 39.3225 204.91 39.6077 204.812C39.889 204.719 40.2258 204.555 40.618 204.32L51.1537 198.16L51.4368 198.396ZM42.0756 190.509L42.3968 190.22L38.9175 186.352L38.5964 186.641L39.3821 188.053L30.3563 196.173L29.0486 195.231L28.7275 195.52L32.2067 199.387L32.5279 199.098L31.7106 197.679L40.7365 189.558L42.0756 190.509ZM34.665 181.257L34.3063 181.497L33.1549 180.427L23.0724 187.191L23.6408 188.652L23.282 188.893L17.6866 180.552L20.7623 178.109L21.028 178.505C20.6897 178.906 20.3498 179.347 20.0084 179.829C19.6587 180.309 19.3581 180.814 19.1067 181.344L21.9144 185.529L26.369 182.541L24.6643 180C24.2733 180.053 23.9025 180.135 23.5517 180.248C23.1926 180.359 22.8501 180.484 22.5243 180.623L22.2636 180.234L26.4117 177.451L26.6724 177.84C26.4069 178.09 26.1572 178.359 25.9234 178.646C25.6896 178.933 25.4767 179.246 25.2846 179.584L26.9893 182.125L32.0642 178.721L29.3066 174.61C28.631 174.637 27.9972 174.715 27.4052 174.845C26.8098 174.97 26.2161 175.108 25.6241 175.26L25.2732 174.736L29.1097 172.976L34.665 181.257ZM13.4769 170.293L23.1675 161.29L22.9973 160.874L13.2418 161.552L20.5202 154.808L20.3399 154.367L8.28595 155.226C7.82601 155.258 7.44877 155.247 7.15425 155.192C6.85414 155.139 6.58009 154.992 6.33212 154.75C6.0763 154.504 5.79105 154.115 5.47635 153.583L5.07642 153.746L6.99891 158.454L7.39884 158.29C7.2543 157.714 7.19148 157.267 7.21034 156.948C7.22922 156.629 7.349 156.399 7.5697 156.257C7.78485 156.117 8.11798 156.036 8.56906 156.014L16.698 155.583L10.1167 161.351C9.81337 161.624 9.57891 161.788 9.41328 161.842C9.2421 161.899 9.07657 161.811 8.91667 161.579C8.74896 161.343 8.52429 160.935 8.2427 160.357L7.84276 160.52L10.1089 166.069L10.5088 165.906C10.3778 165.506 10.3009 165.19 10.2781 164.96C10.253 164.724 10.286 164.519 10.3773 164.346C10.4629 164.175 10.6115 163.991 10.8229 163.794L12.3239 162.423L19.4913 161.858L19.522 161.933L12.7094 167.914C12.4182 168.169 12.1964 168.324 12.0442 168.38C11.8897 168.43 11.7353 168.338 11.5809 168.103C11.421 167.87 11.193 167.454 10.8967 166.856L10.4968 167.019L12.7595 172.56L13.1595 172.396C13.0307 172.002 12.9538 171.687 12.9287 171.451C12.9036 171.214 12.9378 171.013 13.0313 170.845C13.117 170.674 13.2655 170.49 13.4769 170.293ZM14.8551 134.768L14.4247 134.805C14.2704 134.198 14.1082 133.745 13.9381 133.446C13.7621 133.148 13.5419 132.932 13.2775 132.798C13.0072 132.665 12.6564 132.541 12.2251 132.428L2.43502 129.805L1.33913 130.405L0.21115 128.623L12.2976 122.82C12.5639 122.694 12.7637 122.566 12.8969 122.434C13.0297 122.296 13.1192 122.111 13.1655 121.878C13.2119 121.645 13.2353 121.321 13.2359 120.906L13.6664 120.869L14.1679 126.733L13.7375 126.77C13.652 126.193 13.5731 125.764 13.5008 125.481C13.4224 125.198 13.2918 125.044 13.1089 125.017C12.9199 124.991 12.6227 125.071 12.217 125.256L9.24582 126.637L9.60868 130.88L12.3631 131.612C12.739 131.712 13.041 131.723 13.269 131.643C13.4911 131.564 13.6583 131.372 13.7708 131.067C13.8772 130.763 13.9513 130.326 13.9929 129.756L14.4233 129.719L14.8551 134.768ZM3.64236 129.241L8.51608 126.976L8.83228 130.673L3.64697 129.295L3.64236 129.241ZM13.3517 114.773L13.7821 114.81L14.6265 104.874L10.4509 103.841L10.406 104.371C11.0692 104.644 11.6659 104.92 12.1962 105.2C12.7264 105.48 13.2498 105.805 13.7664 106.174L13.3388 111.204L1.19661 110.173L0.999095 108.458L0.568657 108.421L0.124354 113.649L0.554804 113.686L1.02512 112.19L13.1225 113.218L13.3517 114.773ZM15.7152 98.1766L15.2962 98.0716L15.3187 96.5L3.5415 93.5501L2.83801 94.9512L2.41896 94.8462L3.69381 89.7564L4.11287 89.8614L4.03351 91.5858L15.8544 94.5466L17.0811 89.6489C16.6302 89.2019 16.1654 88.7979 15.6868 88.4368C15.2082 88.0757 14.6634 87.7073 14.0524 87.3316L14.1814 86.8165L18.1381 88.5034L15.7152 98.1766ZM24.3807 72.4129C24.7058 72.3149 24.9535 72.0971 25.1238 71.7597C25.2996 71.4115 25.3304 71.0776 25.2163 70.7578C25.0995 70.43 24.8857 70.1877 24.5751 70.0309C24.243 69.8632 23.9157 69.8325 23.5933 69.9386C23.2683 70.0366 23.0165 70.2624 22.8381 70.6159C22.6704 70.948 22.6437 71.2739 22.7578 71.5936C22.8693 71.9053 23.0911 72.145 23.4232 72.3126C23.7339 72.4695 24.053 72.5029 24.3807 72.4129Z" fill="white"/>
</svg>
